<mxfile host="app.diagrams.net" modified="2021-04-15T22:25:32.304Z" agent="5.0 (Macintosh; Intel Mac OS X 10_15_7) AppleWebKit/609.4.1 (KHTML, like Gecko) Version/14.0.3 Safari/609.4.1" etag="4bWRUDmKPJCxB3EwdacK" version="14.5.10" type="github">
  <diagram id="R2lEEEUBdFMjLlhIrx00" name="Page-1">
    <mxGraphModel dx="4572" dy="745" grid="1" gridSize="10" guides="1" tooltips="1" connect="1" arrows="1" fold="1" page="1" pageScale="1" pageWidth="3300" pageHeight="4681" math="0" shadow="0" extFonts="Permanent Marker^https://fonts.googleapis.com/css?family=Permanent+Marker">
      <root>
        <mxCell id="0" />
        <mxCell id="1" parent="0" />
        <mxCell id="4uGV_whrXTmV8ysR94EK-50" value="Cliente" style="shape=table;startSize=30;container=1;collapsible=1;childLayout=tableLayout;fixedRows=1;rowLines=0;fontStyle=0;align=center;resizeLast=1;" parent="1" vertex="1">
          <mxGeometry x="-120" y="330" width="400" height="60" as="geometry" />
        </mxCell>
        <mxCell id="4uGV_whrXTmV8ysR94EK-51" value="" style="shape=partialRectangle;collapsible=0;dropTarget=0;pointerEvents=0;fillColor=none;top=0;left=0;bottom=1;right=0;points=[[0,0.5],[1,0.5]];portConstraint=eastwest;" parent="4uGV_whrXTmV8ysR94EK-50" vertex="1">
          <mxGeometry y="30" width="400" height="30" as="geometry" />
        </mxCell>
        <mxCell id="4uGV_whrXTmV8ysR94EK-83" value="nome" style="shape=partialRectangle;connectable=0;fillColor=none;top=0;left=0;bottom=0;right=0;fontStyle=1;overflow=hidden;" parent="4uGV_whrXTmV8ysR94EK-51" vertex="1">
          <mxGeometry width="100" height="30" as="geometry" />
        </mxCell>
        <mxCell id="4uGV_whrXTmV8ysR94EK-82" value="endereço" style="shape=partialRectangle;connectable=0;fillColor=none;top=0;left=0;bottom=0;right=0;fontStyle=1;overflow=hidden;" parent="4uGV_whrXTmV8ysR94EK-51" vertex="1">
          <mxGeometry x="100" width="100" height="30" as="geometry" />
        </mxCell>
        <mxCell id="4uGV_whrXTmV8ysR94EK-81" value="num_carta" style="shape=partialRectangle;connectable=0;fillColor=none;top=0;left=0;bottom=0;right=0;fontStyle=1;overflow=hidden;" parent="4uGV_whrXTmV8ysR94EK-51" vertex="1">
          <mxGeometry x="200" width="100" height="30" as="geometry" />
        </mxCell>
        <mxCell id="4uGV_whrXTmV8ysR94EK-52" value="NIF" style="shape=partialRectangle;connectable=0;fillColor=none;top=0;left=0;bottom=0;right=0;fontStyle=5;overflow=hidden;" parent="4uGV_whrXTmV8ysR94EK-51" vertex="1">
          <mxGeometry x="300" width="100" height="30" as="geometry" />
        </mxCell>
        <mxCell id="4uGV_whrXTmV8ysR94EK-84" value="Aluguer" style="shape=table;startSize=20;container=1;collapsible=1;childLayout=tableLayout;fixedRows=1;rowLines=0;fontStyle=0;align=center;resizeLast=1;" parent="1" vertex="1">
          <mxGeometry x="-120" y="470" width="910" height="60" as="geometry" />
        </mxCell>
        <mxCell id="4uGV_whrXTmV8ysR94EK-85" value="" style="shape=partialRectangle;collapsible=0;dropTarget=0;pointerEvents=0;fillColor=none;top=0;left=0;bottom=1;right=0;points=[[0,0.5],[1,0.5]];portConstraint=eastwest;" parent="4uGV_whrXTmV8ysR94EK-84" vertex="1">
          <mxGeometry y="20" width="910" height="40" as="geometry" />
        </mxCell>
        <mxCell id="4uGV_whrXTmV8ysR94EK-131" value="Número" style="shape=partialRectangle;connectable=0;fillColor=none;top=0;left=0;bottom=0;right=0;fontStyle=5;overflow=hidden;" parent="4uGV_whrXTmV8ysR94EK-85" vertex="1">
          <mxGeometry width="100" height="40" as="geometry" />
        </mxCell>
        <mxCell id="4uGV_whrXTmV8ysR94EK-86" value="Titular" style="shape=partialRectangle;connectable=0;fillColor=none;top=0;left=0;bottom=0;right=0;fontStyle=1;overflow=hidden;" parent="4uGV_whrXTmV8ysR94EK-85" vertex="1">
          <mxGeometry x="100" width="100" height="40" as="geometry" />
        </mxCell>
        <mxCell id="4uGV_whrXTmV8ysR94EK-87" value="duração" style="shape=partialRectangle;connectable=0;fillColor=none;top=0;left=0;bottom=0;right=0;fontStyle=1;overflow=hidden;" parent="4uGV_whrXTmV8ysR94EK-85" vertex="1">
          <mxGeometry x="200" width="100" height="40" as="geometry" />
        </mxCell>
        <mxCell id="4uGV_whrXTmV8ysR94EK-88" value="data" style="shape=partialRectangle;connectable=0;fillColor=none;top=0;left=0;bottom=0;right=0;fontStyle=1;overflow=hidden;" parent="4uGV_whrXTmV8ysR94EK-85" vertex="1">
          <mxGeometry x="300" width="100" height="40" as="geometry" />
        </mxCell>
        <mxCell id="4uGV_whrXTmV8ysR94EK-134" value="Local" style="shape=partialRectangle;connectable=0;fillColor=none;top=0;left=0;bottom=0;right=0;fontStyle=1;overflow=hidden;" parent="4uGV_whrXTmV8ysR94EK-85" vertex="1">
          <mxGeometry x="400" width="100" height="40" as="geometry" />
        </mxCell>
        <mxCell id="4uGV_whrXTmV8ysR94EK-133" value="Objeto" style="shape=partialRectangle;connectable=0;fillColor=none;top=0;left=0;bottom=0;right=0;fontStyle=1;overflow=hidden;" parent="4uGV_whrXTmV8ysR94EK-85" vertex="1">
          <mxGeometry x="500" width="100" height="40" as="geometry" />
        </mxCell>
        <mxCell id="fnm-uwGM8BjsfgP0mNWM-2" value="NIF_Cliente" style="shape=partialRectangle;connectable=0;fillColor=none;top=0;left=0;bottom=0;right=0;fontStyle=1;overflow=hidden;" parent="4uGV_whrXTmV8ysR94EK-85" vertex="1">
          <mxGeometry x="600" width="100" height="40" as="geometry" />
        </mxCell>
        <mxCell id="fnm-uwGM8BjsfgP0mNWM-3" value="Número_Balcão" style="shape=partialRectangle;connectable=0;fillColor=none;top=0;left=0;bottom=0;right=0;fontStyle=1;overflow=hidden;" parent="4uGV_whrXTmV8ysR94EK-85" vertex="1">
          <mxGeometry x="700" width="100" height="40" as="geometry" />
        </mxCell>
        <mxCell id="fnm-uwGM8BjsfgP0mNWM-4" value="Matricula_Veiculo" style="shape=partialRectangle;connectable=0;fillColor=none;top=0;left=0;bottom=0;right=0;fontStyle=1;overflow=hidden;" parent="4uGV_whrXTmV8ysR94EK-85" vertex="1">
          <mxGeometry x="800" width="110" height="40" as="geometry" />
        </mxCell>
        <mxCell id="4uGV_whrXTmV8ysR94EK-90" value="Balcão" style="shape=table;startSize=30;container=1;collapsible=1;childLayout=tableLayout;fixedRows=1;rowLines=0;fontStyle=0;align=center;resizeLast=1;" parent="1" vertex="1">
          <mxGeometry x="-120" y="600" width="300" height="60" as="geometry" />
        </mxCell>
        <mxCell id="4uGV_whrXTmV8ysR94EK-91" value="" style="shape=partialRectangle;collapsible=0;dropTarget=0;pointerEvents=0;fillColor=none;top=0;left=0;bottom=1;right=0;points=[[0,0.5],[1,0.5]];portConstraint=eastwest;" parent="4uGV_whrXTmV8ysR94EK-90" vertex="1">
          <mxGeometry y="30" width="300" height="30" as="geometry" />
        </mxCell>
        <mxCell id="4uGV_whrXTmV8ysR94EK-92" value="Número" style="shape=partialRectangle;connectable=0;fillColor=none;top=0;left=0;bottom=0;right=0;fontStyle=5;overflow=hidden;" parent="4uGV_whrXTmV8ysR94EK-91" vertex="1">
          <mxGeometry width="100" height="30" as="geometry" />
        </mxCell>
        <mxCell id="4uGV_whrXTmV8ysR94EK-93" value="nome" style="shape=partialRectangle;connectable=0;fillColor=none;top=0;left=0;bottom=0;right=0;fontStyle=1;overflow=hidden;" parent="4uGV_whrXTmV8ysR94EK-91" vertex="1">
          <mxGeometry x="100" width="100" height="30" as="geometry" />
        </mxCell>
        <mxCell id="4uGV_whrXTmV8ysR94EK-94" value="endereço" style="shape=partialRectangle;connectable=0;fillColor=none;top=0;left=0;bottom=0;right=0;fontStyle=1;overflow=hidden;" parent="4uGV_whrXTmV8ysR94EK-91" vertex="1">
          <mxGeometry x="200" width="100" height="30" as="geometry" />
        </mxCell>
        <mxCell id="4uGV_whrXTmV8ysR94EK-95" value="Veículo" style="shape=table;startSize=30;container=1;collapsible=1;childLayout=tableLayout;fixedRows=1;rowLines=0;fontStyle=0;align=center;resizeLast=1;" parent="1" vertex="1">
          <mxGeometry x="-120" y="720" width="500" height="60" as="geometry" />
        </mxCell>
        <mxCell id="4uGV_whrXTmV8ysR94EK-96" value="" style="shape=partialRectangle;collapsible=0;dropTarget=0;pointerEvents=0;fillColor=none;top=0;left=0;bottom=1;right=0;points=[[0,0.5],[1,0.5]];portConstraint=eastwest;" parent="4uGV_whrXTmV8ysR94EK-95" vertex="1">
          <mxGeometry y="30" width="500" height="30" as="geometry" />
        </mxCell>
        <mxCell id="4uGV_whrXTmV8ysR94EK-143" value="matrícula" style="shape=partialRectangle;connectable=0;fillColor=none;top=0;left=0;bottom=0;right=0;fontStyle=5;overflow=hidden;" parent="4uGV_whrXTmV8ysR94EK-96" vertex="1">
          <mxGeometry width="100" height="30" as="geometry" />
        </mxCell>
        <mxCell id="4uGV_whrXTmV8ysR94EK-97" value="Tipo" style="shape=partialRectangle;connectable=0;fillColor=none;top=0;left=0;bottom=0;right=0;fontStyle=1;overflow=hidden;" parent="4uGV_whrXTmV8ysR94EK-96" vertex="1">
          <mxGeometry x="100" width="100" height="30" as="geometry" />
        </mxCell>
        <mxCell id="4uGV_whrXTmV8ysR94EK-98" value="ano" style="shape=partialRectangle;connectable=0;fillColor=none;top=0;left=0;bottom=0;right=0;fontStyle=1;overflow=hidden;" parent="4uGV_whrXTmV8ysR94EK-96" vertex="1">
          <mxGeometry x="200" width="100" height="30" as="geometry" />
        </mxCell>
        <mxCell id="4uGV_whrXTmV8ysR94EK-99" value="marca" style="shape=partialRectangle;connectable=0;fillColor=none;top=0;left=0;bottom=0;right=0;fontStyle=1;overflow=hidden;" parent="4uGV_whrXTmV8ysR94EK-96" vertex="1">
          <mxGeometry x="300" width="100" height="30" as="geometry" />
        </mxCell>
        <mxCell id="fnm-uwGM8BjsfgP0mNWM-5" value="Código_Veiculo" style="shape=partialRectangle;connectable=0;fillColor=none;top=0;left=0;bottom=0;right=0;fontStyle=1;overflow=hidden;" parent="4uGV_whrXTmV8ysR94EK-96" vertex="1">
          <mxGeometry x="400" width="100" height="30" as="geometry" />
        </mxCell>
        <mxCell id="4uGV_whrXTmV8ysR94EK-100" value="Tipo de Veículo" style="shape=table;startSize=30;container=1;collapsible=1;childLayout=tableLayout;fixedRows=1;rowLines=0;fontStyle=0;align=center;resizeLast=1;" parent="1" vertex="1">
          <mxGeometry x="-120" y="860" width="390" height="60" as="geometry" />
        </mxCell>
        <mxCell id="4uGV_whrXTmV8ysR94EK-101" value="" style="shape=partialRectangle;collapsible=0;dropTarget=0;pointerEvents=0;fillColor=none;top=0;left=0;bottom=1;right=0;points=[[0,0.5],[1,0.5]];portConstraint=eastwest;" parent="4uGV_whrXTmV8ysR94EK-100" vertex="1">
          <mxGeometry y="30" width="390" height="30" as="geometry" />
        </mxCell>
        <mxCell id="4uGV_whrXTmV8ysR94EK-102" value="código" style="shape=partialRectangle;connectable=0;fillColor=none;top=0;left=0;bottom=0;right=0;fontStyle=5;overflow=hidden;" parent="4uGV_whrXTmV8ysR94EK-101" vertex="1">
          <mxGeometry width="100" height="30" as="geometry" />
        </mxCell>
        <mxCell id="4uGV_whrXTmV8ysR94EK-103" value="ar-condiciondado" style="shape=partialRectangle;connectable=0;fillColor=none;top=0;left=0;bottom=0;right=0;fontStyle=1;overflow=hidden;" parent="4uGV_whrXTmV8ysR94EK-101" vertex="1">
          <mxGeometry x="100" width="130" height="30" as="geometry" />
        </mxCell>
        <mxCell id="4uGV_whrXTmV8ysR94EK-104" value="designação" style="shape=partialRectangle;connectable=0;fillColor=none;top=0;left=0;bottom=0;right=0;fontStyle=1;overflow=hidden;" parent="4uGV_whrXTmV8ysR94EK-101" vertex="1">
          <mxGeometry x="230" width="160" height="30" as="geometry" />
        </mxCell>
        <mxCell id="4uGV_whrXTmV8ysR94EK-105" value="Ligeiros" style="shape=table;startSize=30;container=1;collapsible=1;childLayout=tableLayout;fixedRows=1;rowLines=0;fontStyle=0;align=center;resizeLast=1;" parent="1" vertex="1">
          <mxGeometry x="-120" y="1190" width="520" height="60" as="geometry" />
        </mxCell>
        <mxCell id="4uGV_whrXTmV8ysR94EK-106" value="" style="shape=partialRectangle;collapsible=0;dropTarget=0;pointerEvents=0;fillColor=none;top=0;left=0;bottom=1;right=0;points=[[0,0.5],[1,0.5]];portConstraint=eastwest;" parent="4uGV_whrXTmV8ysR94EK-105" vertex="1">
          <mxGeometry y="30" width="520" height="30" as="geometry" />
        </mxCell>
        <mxCell id="4uGV_whrXTmV8ysR94EK-107" value="código_tipo_Veiculo" style="shape=partialRectangle;connectable=0;fillColor=none;top=0;left=0;bottom=0;right=0;fontStyle=5;overflow=hidden;" parent="4uGV_whrXTmV8ysR94EK-106" vertex="1">
          <mxGeometry width="130" height="30" as="geometry" />
        </mxCell>
        <mxCell id="4uGV_whrXTmV8ysR94EK-108" value="portas" style="shape=partialRectangle;connectable=0;fillColor=none;top=0;left=0;bottom=0;right=0;fontStyle=1;overflow=hidden;" parent="4uGV_whrXTmV8ysR94EK-106" vertex="1">
          <mxGeometry x="130" width="90" height="30" as="geometry" />
        </mxCell>
        <mxCell id="4uGV_whrXTmV8ysR94EK-109" value="combustível" style="shape=partialRectangle;connectable=0;fillColor=none;top=0;left=0;bottom=0;right=0;fontStyle=1;overflow=hidden;" parent="4uGV_whrXTmV8ysR94EK-106" vertex="1">
          <mxGeometry x="220" width="140" height="30" as="geometry" />
        </mxCell>
        <mxCell id="4uGV_whrXTmV8ysR94EK-121" value="num_lugares" style="shape=partialRectangle;connectable=0;fillColor=none;top=0;left=0;bottom=0;right=0;fontStyle=1;overflow=hidden;" parent="4uGV_whrXTmV8ysR94EK-106" vertex="1">
          <mxGeometry x="360" width="160" height="30" as="geometry" />
        </mxCell>
        <mxCell id="4uGV_whrXTmV8ysR94EK-110" value="Pesados" style="shape=table;startSize=30;container=1;collapsible=1;childLayout=tableLayout;fixedRows=1;rowLines=0;fontStyle=0;align=center;resizeLast=1;" parent="1" vertex="1">
          <mxGeometry x="-120" y="1090" width="390" height="60" as="geometry" />
        </mxCell>
        <mxCell id="4uGV_whrXTmV8ysR94EK-111" value="" style="shape=partialRectangle;collapsible=0;dropTarget=0;pointerEvents=0;fillColor=none;top=0;left=0;bottom=1;right=0;points=[[0,0.5],[1,0.5]];portConstraint=eastwest;" parent="4uGV_whrXTmV8ysR94EK-110" vertex="1">
          <mxGeometry y="30" width="390" height="30" as="geometry" />
        </mxCell>
        <mxCell id="4uGV_whrXTmV8ysR94EK-112" value="código_tipo_Veiculo" style="shape=partialRectangle;connectable=0;fillColor=none;top=0;left=0;bottom=0;right=0;fontStyle=5;overflow=hidden;" parent="4uGV_whrXTmV8ysR94EK-111" vertex="1">
          <mxGeometry width="150" height="30" as="geometry" />
        </mxCell>
        <mxCell id="4uGV_whrXTmV8ysR94EK-113" value="peso" style="shape=partialRectangle;connectable=0;fillColor=none;top=0;left=0;bottom=0;right=0;fontStyle=1;overflow=hidden;" parent="4uGV_whrXTmV8ysR94EK-111" vertex="1">
          <mxGeometry x="150" width="100" height="30" as="geometry" />
        </mxCell>
        <mxCell id="4uGV_whrXTmV8ysR94EK-122" value="passageiros" style="shape=partialRectangle;connectable=0;fillColor=none;top=0;left=0;bottom=0;right=0;fontStyle=1;overflow=hidden;" parent="4uGV_whrXTmV8ysR94EK-111" vertex="1">
          <mxGeometry x="250" width="140" height="30" as="geometry" />
        </mxCell>
        <mxCell id="4uGV_whrXTmV8ysR94EK-128" value="" style="edgeStyle=segmentEdgeStyle;endArrow=classic;html=1;" parent="1" source="4uGV_whrXTmV8ysR94EK-85" edge="1">
          <mxGeometry width="50" height="50" relative="1" as="geometry">
            <mxPoint x="630" y="540" as="sourcePoint" />
            <mxPoint x="-80" y="630" as="targetPoint" />
            <Array as="points">
              <mxPoint x="630" y="560" />
              <mxPoint x="-80" y="560" />
              <mxPoint x="-80" y="630" />
            </Array>
          </mxGeometry>
        </mxCell>
        <mxCell id="4uGV_whrXTmV8ysR94EK-130" value="" style="endArrow=classic;html=1;entryX=0.893;entryY=1.033;entryDx=0;entryDy=0;entryPerimeter=0;" parent="1" target="4uGV_whrXTmV8ysR94EK-51" edge="1">
          <mxGeometry width="50" height="50" relative="1" as="geometry">
            <mxPoint x="520" y="490" as="sourcePoint" />
            <mxPoint x="135" y="370" as="targetPoint" />
            <Array as="points">
              <mxPoint x="520" y="490" />
              <mxPoint x="520" y="420" />
              <mxPoint x="237" y="420" />
            </Array>
          </mxGeometry>
        </mxCell>
        <mxCell id="4uGV_whrXTmV8ysR94EK-142" value="" style="edgeStyle=segmentEdgeStyle;endArrow=classic;html=1;exitX=0.934;exitY=1;exitDx=0;exitDy=0;exitPerimeter=0;entryX=0.104;entryY=0.483;entryDx=0;entryDy=0;entryPerimeter=0;" parent="1" source="4uGV_whrXTmV8ysR94EK-85" target="4uGV_whrXTmV8ysR94EK-95" edge="1">
          <mxGeometry width="50" height="50" relative="1" as="geometry">
            <mxPoint x="610" y="570" as="sourcePoint" />
            <mxPoint x="50" y="760" as="targetPoint" />
            <Array as="points">
              <mxPoint x="730" y="710" />
              <mxPoint x="-70" y="710" />
              <mxPoint x="-70" y="740" />
              <mxPoint x="-68" y="740" />
            </Array>
          </mxGeometry>
        </mxCell>
        <mxCell id="4uGV_whrXTmV8ysR94EK-144" value="Similaridade" style="shape=table;startSize=30;container=1;collapsible=1;childLayout=tableLayout;fixedRows=1;rowLines=0;fontStyle=0;align=center;resizeLast=1;" parent="1" vertex="1">
          <mxGeometry x="-90" y="960" width="200" height="60" as="geometry" />
        </mxCell>
        <mxCell id="4uGV_whrXTmV8ysR94EK-145" value="" style="shape=partialRectangle;collapsible=0;dropTarget=0;pointerEvents=0;fillColor=none;top=0;left=0;bottom=1;right=0;points=[[0,0.5],[1,0.5]];portConstraint=eastwest;" parent="4uGV_whrXTmV8ysR94EK-144" vertex="1">
          <mxGeometry y="30" width="200" height="30" as="geometry" />
        </mxCell>
        <mxCell id="4uGV_whrXTmV8ysR94EK-146" value="código_a" style="shape=partialRectangle;connectable=0;fillColor=none;top=0;left=0;bottom=0;right=0;fontStyle=5;overflow=hidden;" parent="4uGV_whrXTmV8ysR94EK-145" vertex="1">
          <mxGeometry width="100" height="30" as="geometry" />
        </mxCell>
        <mxCell id="4uGV_whrXTmV8ysR94EK-147" value="código_b" style="shape=partialRectangle;connectable=0;fillColor=none;top=0;left=0;bottom=0;right=0;fontStyle=5;overflow=hidden;" parent="4uGV_whrXTmV8ysR94EK-145" vertex="1">
          <mxGeometry x="100" width="100" height="30" as="geometry" />
        </mxCell>
        <mxCell id="4uGV_whrXTmV8ysR94EK-154" value="" style="edgeStyle=elbowEdgeStyle;elbow=horizontal;endArrow=classic;html=1;exitX=0.155;exitY=-0.033;exitDx=0;exitDy=0;exitPerimeter=0;" parent="1" source="4uGV_whrXTmV8ysR94EK-145" edge="1">
          <mxGeometry width="50" height="50" relative="1" as="geometry">
            <mxPoint x="-40" y="1000" as="sourcePoint" />
            <mxPoint x="-60" y="920" as="targetPoint" />
            <Array as="points">
              <mxPoint x="-60" y="940" />
              <mxPoint x="-40" y="950" />
            </Array>
          </mxGeometry>
        </mxCell>
        <mxCell id="4uGV_whrXTmV8ysR94EK-162" value="" style="edgeStyle=segmentEdgeStyle;endArrow=classic;html=1;entryX=0.203;entryY=1.033;entryDx=0;entryDy=0;entryPerimeter=0;" parent="1" target="4uGV_whrXTmV8ysR94EK-101" edge="1">
          <mxGeometry width="50" height="50" relative="1" as="geometry">
            <mxPoint x="75" y="990" as="sourcePoint" />
            <mxPoint x="30" y="910" as="targetPoint" />
            <Array as="points">
              <mxPoint x="75" y="940" />
              <mxPoint x="-41" y="940" />
            </Array>
          </mxGeometry>
        </mxCell>
        <mxCell id="4uGV_whrXTmV8ysR94EK-163" value="" style="edgeStyle=segmentEdgeStyle;endArrow=classic;html=1;exitX=0.896;exitY=1.1;exitDx=0;exitDy=0;exitPerimeter=0;" parent="1" source="4uGV_whrXTmV8ysR94EK-96" edge="1">
          <mxGeometry width="50" height="50" relative="1" as="geometry">
            <mxPoint x="140" y="820" as="sourcePoint" />
            <mxPoint x="-70" y="890" as="targetPoint" />
            <Array as="points">
              <mxPoint x="328" y="810" />
              <mxPoint x="330" y="810" />
              <mxPoint x="330" y="820" />
              <mxPoint x="-70" y="820" />
            </Array>
          </mxGeometry>
        </mxCell>
        <mxCell id="4uGV_whrXTmV8ysR94EK-165" value="" style="edgeStyle=segmentEdgeStyle;endArrow=classic;html=1;entryX=0.07;entryY=1.081;entryDx=0;entryDy=0;entryPerimeter=0;exitX=0.077;exitY=-0.033;exitDx=0;exitDy=0;exitPerimeter=0;" parent="1" source="4uGV_whrXTmV8ysR94EK-111" target="4uGV_whrXTmV8ysR94EK-101" edge="1">
          <mxGeometry width="50" height="50" relative="1" as="geometry">
            <mxPoint x="-100" y="1130" as="sourcePoint" />
            <mxPoint x="240" y="930" as="targetPoint" />
            <Array as="points">
              <mxPoint x="-100" y="1119" />
              <mxPoint x="-100" y="922" />
            </Array>
          </mxGeometry>
        </mxCell>
        <mxCell id="4uGV_whrXTmV8ysR94EK-166" value="" style="edgeStyle=segmentEdgeStyle;endArrow=classic;html=1;exitX=0;exitY=0.5;exitDx=0;exitDy=0;entryX=0.056;entryY=1;entryDx=0;entryDy=0;entryPerimeter=0;" parent="1" source="4uGV_whrXTmV8ysR94EK-106" target="4uGV_whrXTmV8ysR94EK-101" edge="1">
          <mxGeometry width="50" height="50" relative="1" as="geometry">
            <mxPoint x="-120" y="1226.29" as="sourcePoint" />
            <mxPoint x="80" y="940" as="targetPoint" />
            <Array as="points">
              <mxPoint x="-140" y="1235" />
              <mxPoint x="-140" y="930" />
              <mxPoint x="-98" y="930" />
            </Array>
          </mxGeometry>
        </mxCell>
        <mxCell id="4uGV_whrXTmV8ysR94EK-169" value="&lt;div style=&quot;font-size: 22px&quot;&gt;&lt;font style=&quot;font-size: 22px&quot;&gt;1. Cliente - esquema de relação&amp;nbsp;&amp;nbsp;&amp;nbsp;&amp;nbsp; &lt;br&gt;&lt;/font&gt;&lt;/div&gt;&lt;div style=&quot;font-size: 22px&quot;&gt;&lt;font style=&quot;font-size: 22px&quot;&gt;&amp;nbsp;&amp;nbsp;&amp;nbsp; CLIENTE(nome, endereço, num_carta, &lt;u&gt;NIF&lt;/u&gt;)&lt;/font&gt;&lt;/div&gt;&lt;div style=&quot;font-size: 22px&quot;&gt;&lt;font style=&quot;font-size: 22px&quot;&gt;2. Aluguer - esquema de relação &lt;/font&gt;&lt;font style=&quot;font-size: 22px&quot;&gt;&lt;br&gt;&lt;/font&gt;&lt;/div&gt;&lt;div style=&quot;font-size: 22px&quot;&gt;&lt;font style=&quot;font-size: 22px&quot;&gt;&amp;nbsp;&amp;nbsp;&amp;nbsp; ALUGUER(&lt;u&gt;número&lt;/u&gt;, duração, data, titular, local, objeto, NIF_Cliente, Numero_Balcao, Matricula_Veiculo)&lt;/font&gt;&lt;/div&gt;&lt;div style=&quot;font-size: 22px&quot;&gt;&lt;font style=&quot;font-size: 22px&quot;&gt;3. Balcão - esquema de relação &lt;br&gt;&lt;/font&gt;&lt;/div&gt;&lt;div style=&quot;font-size: 22px&quot;&gt;&lt;font style=&quot;font-size: 22px&quot;&gt;&amp;nbsp;&amp;nbsp;&amp;nbsp; BALCÃO(nome, &lt;u&gt;número&lt;/u&gt;, endereço)&lt;/font&gt;&lt;/div&gt;&lt;div&gt;&lt;font style=&quot;font-size: 22px&quot;&gt;4. Veículo - esquema de relação &lt;br&gt;&lt;/font&gt;&lt;/div&gt;&lt;div&gt;&lt;font style=&quot;font-size: 22px&quot;&gt;&amp;nbsp;&amp;nbsp;&amp;nbsp; VEÍCULO(&lt;u&gt;matricula&lt;/u&gt;, marca, ano, tipo, Codigo_Veiculo)&lt;/font&gt;&lt;/div&gt;&lt;div&gt;&lt;font style=&quot;font-size: 22px&quot;&gt;&lt;font style=&quot;font-size: 22px&quot;&gt;5. Tipo_Veículo - esquema de relação &lt;br&gt;&lt;/font&gt;&lt;/font&gt;&lt;/div&gt;&lt;div&gt;&lt;font style=&quot;font-size: 22px&quot;&gt;&lt;font style=&quot;font-size: 22px&quot;&gt;&amp;nbsp;&amp;nbsp;&amp;nbsp; TIPO_VEÍCULO(designação, ar-condicionado, &lt;u&gt;código&lt;/u&gt;)&lt;/font&gt;&lt;/font&gt;&lt;/div&gt;&lt;div&gt;&lt;font style=&quot;font-size: 22px&quot;&gt;&lt;font style=&quot;font-size: 22px&quot;&gt;6. Similaridade - esquema de relação &lt;br&gt;&lt;/font&gt;&lt;/font&gt;&lt;/div&gt;&lt;div&gt;&lt;font style=&quot;font-size: 22px&quot;&gt;&lt;font style=&quot;font-size: 22px&quot;&gt;&amp;nbsp;&amp;nbsp;&amp;nbsp; SIMILARIDADE(&lt;u&gt;código_a&lt;/u&gt;, &lt;u&gt;código_b&lt;/u&gt;)&lt;/font&gt;&lt;/font&gt;&lt;/div&gt;&lt;div&gt;&lt;font style=&quot;font-size: 22px&quot;&gt;&lt;font style=&quot;font-size: 22px&quot;&gt;7. Ligeiro-esquema de relação &lt;br&gt;&lt;/font&gt;&lt;/font&gt;&lt;/div&gt;&lt;div&gt;&lt;font style=&quot;font-size: 22px&quot;&gt;&lt;font style=&quot;font-size: 22px&quot;&gt;&amp;nbsp;&amp;nbsp;&amp;nbsp; LIGEIRO(&lt;u&gt;código&lt;/u&gt;, portas, combustível, num_lugares)&lt;/font&gt;&lt;/font&gt;&lt;/div&gt;&lt;div&gt;&lt;font style=&quot;font-size: 22px&quot;&gt;&lt;font style=&quot;font-size: 22px&quot;&gt;8. Pesado - esquema de relação &lt;br&gt;&lt;/font&gt;&lt;/font&gt;&lt;/div&gt;&lt;div&gt;&lt;font style=&quot;font-size: 22px&quot;&gt;&lt;font style=&quot;font-size: 22px&quot;&gt;&amp;nbsp;&amp;nbsp;&amp;nbsp; PESADO(&lt;u&gt;código&lt;/u&gt;, peso, passageiros)&lt;/font&gt;&lt;/font&gt;&lt;/div&gt;" style="text;strokeColor=none;fillColor=none;html=1;whiteSpace=wrap;verticalAlign=middle;overflow=hidden;" parent="1" vertex="1">
          <mxGeometry x="-175" y="1350" width="1055" height="450" as="geometry" />
        </mxCell>
        <mxCell id="4uGV_whrXTmV8ysR94EK-170" value="Relações" style="text;strokeColor=none;fillColor=none;html=1;fontSize=24;fontStyle=1;verticalAlign=middle;align=center;" parent="1" vertex="1">
          <mxGeometry x="-175" y="1310" width="210" height="40" as="geometry" />
        </mxCell>
        <mxCell id="4uGV_whrXTmV8ysR94EK-174" value="" style="shape=table;html=1;whiteSpace=wrap;startSize=0;container=1;collapsible=0;childLayout=tableLayout;" parent="1" vertex="1">
          <mxGeometry x="-160" y="1880" width="605" height="370" as="geometry" />
        </mxCell>
        <mxCell id="4uGV_whrXTmV8ysR94EK-175" value="" style="shape=partialRectangle;html=1;whiteSpace=wrap;collapsible=0;dropTarget=0;pointerEvents=0;fillColor=none;top=0;left=0;bottom=0;right=0;points=[[0,0.5],[1,0.5]];portConstraint=eastwest;" parent="4uGV_whrXTmV8ysR94EK-174" vertex="1">
          <mxGeometry width="605" height="40" as="geometry" />
        </mxCell>
        <mxCell id="4uGV_whrXTmV8ysR94EK-176" value="Relação" style="shape=partialRectangle;html=1;whiteSpace=wrap;connectable=0;overflow=hidden;fillColor=#f5f5f5;top=0;left=0;bottom=0;right=0;strokeColor=#666666;fontColor=#333333;" parent="4uGV_whrXTmV8ysR94EK-175" vertex="1">
          <mxGeometry width="152" height="40" as="geometry" />
        </mxCell>
        <mxCell id="4uGV_whrXTmV8ysR94EK-177" value="Chaves Candidatas" style="shape=partialRectangle;html=1;whiteSpace=wrap;connectable=0;overflow=hidden;fillColor=#f5f5f5;top=0;left=0;bottom=0;right=0;strokeColor=#666666;fontColor=#333333;" parent="4uGV_whrXTmV8ysR94EK-175" vertex="1">
          <mxGeometry x="152" width="151" height="40" as="geometry" />
        </mxCell>
        <mxCell id="4uGV_whrXTmV8ysR94EK-178" value="Chave Primária" style="shape=partialRectangle;html=1;whiteSpace=wrap;connectable=0;overflow=hidden;fillColor=#f5f5f5;top=0;left=0;bottom=0;right=0;strokeColor=#666666;fontColor=#333333;" parent="4uGV_whrXTmV8ysR94EK-175" vertex="1">
          <mxGeometry x="303" width="150" height="40" as="geometry" />
        </mxCell>
        <mxCell id="4uGV_whrXTmV8ysR94EK-179" value="Chaves Estrangeiras" style="shape=partialRectangle;html=1;whiteSpace=wrap;connectable=0;overflow=hidden;fillColor=#f5f5f5;top=0;left=0;bottom=0;right=0;strokeColor=#666666;fontColor=#333333;" parent="4uGV_whrXTmV8ysR94EK-175" vertex="1">
          <mxGeometry x="453" width="152" height="40" as="geometry" />
        </mxCell>
        <mxCell id="4uGV_whrXTmV8ysR94EK-180" value="" style="shape=partialRectangle;html=1;whiteSpace=wrap;collapsible=0;dropTarget=0;pointerEvents=0;fillColor=none;top=0;left=0;bottom=0;right=0;points=[[0,0.5],[1,0.5]];portConstraint=eastwest;" parent="4uGV_whrXTmV8ysR94EK-174" vertex="1">
          <mxGeometry y="40" width="605" height="40" as="geometry" />
        </mxCell>
        <mxCell id="4uGV_whrXTmV8ysR94EK-181" value="Cliente" style="shape=partialRectangle;html=1;whiteSpace=wrap;connectable=0;overflow=hidden;fillColor=#f5f5f5;top=0;left=0;bottom=0;right=0;strokeColor=#666666;fontColor=#333333;" parent="4uGV_whrXTmV8ysR94EK-180" vertex="1">
          <mxGeometry width="152" height="40" as="geometry" />
        </mxCell>
        <mxCell id="4uGV_whrXTmV8ysR94EK-182" value="NIF, num_carta" style="shape=partialRectangle;html=1;whiteSpace=wrap;connectable=0;overflow=hidden;fillColor=none;top=0;left=0;bottom=0;right=0;" parent="4uGV_whrXTmV8ysR94EK-180" vertex="1">
          <mxGeometry x="152" width="151" height="40" as="geometry" />
        </mxCell>
        <mxCell id="4uGV_whrXTmV8ysR94EK-183" value="NIF" style="shape=partialRectangle;html=1;whiteSpace=wrap;connectable=0;overflow=hidden;fillColor=none;top=0;left=0;bottom=0;right=0;" parent="4uGV_whrXTmV8ysR94EK-180" vertex="1">
          <mxGeometry x="303" width="150" height="40" as="geometry" />
        </mxCell>
        <mxCell id="4uGV_whrXTmV8ysR94EK-184" value="-" style="shape=partialRectangle;html=1;whiteSpace=wrap;connectable=0;overflow=hidden;fillColor=none;top=0;left=0;bottom=0;right=0;" parent="4uGV_whrXTmV8ysR94EK-180" vertex="1">
          <mxGeometry x="453" width="152" height="40" as="geometry" />
        </mxCell>
        <mxCell id="4uGV_whrXTmV8ysR94EK-185" value="" style="shape=partialRectangle;html=1;whiteSpace=wrap;collapsible=0;dropTarget=0;pointerEvents=0;fillColor=none;top=0;left=0;bottom=0;right=0;points=[[0,0.5],[1,0.5]];portConstraint=eastwest;" parent="4uGV_whrXTmV8ysR94EK-174" vertex="1">
          <mxGeometry y="80" width="605" height="50" as="geometry" />
        </mxCell>
        <mxCell id="4uGV_whrXTmV8ysR94EK-186" value="Aluguer" style="shape=partialRectangle;html=1;whiteSpace=wrap;connectable=0;overflow=hidden;fillColor=#f5f5f5;top=0;left=0;bottom=0;right=0;strokeColor=#666666;fontColor=#333333;" parent="4uGV_whrXTmV8ysR94EK-185" vertex="1">
          <mxGeometry width="152" height="50" as="geometry" />
        </mxCell>
        <mxCell id="4uGV_whrXTmV8ysR94EK-187" value="número, titular" style="shape=partialRectangle;html=1;whiteSpace=wrap;connectable=0;overflow=hidden;fillColor=none;top=0;left=0;bottom=0;right=0;" parent="4uGV_whrXTmV8ysR94EK-185" vertex="1">
          <mxGeometry x="152" width="151" height="50" as="geometry" />
        </mxCell>
        <mxCell id="4uGV_whrXTmV8ysR94EK-188" value="número" style="shape=partialRectangle;html=1;whiteSpace=wrap;connectable=0;overflow=hidden;fillColor=none;top=0;left=0;bottom=0;right=0;" parent="4uGV_whrXTmV8ysR94EK-185" vertex="1">
          <mxGeometry x="303" width="150" height="50" as="geometry" />
        </mxCell>
        <mxCell id="4uGV_whrXTmV8ysR94EK-189" value="NIF_Cliente, Numero_Balcao, Matricula_veiculo" style="shape=partialRectangle;html=1;whiteSpace=wrap;connectable=0;overflow=hidden;fillColor=none;top=0;left=0;bottom=0;right=0;" parent="4uGV_whrXTmV8ysR94EK-185" vertex="1">
          <mxGeometry x="453" width="152" height="50" as="geometry" />
        </mxCell>
        <mxCell id="4uGV_whrXTmV8ysR94EK-190" value="" style="shape=partialRectangle;html=1;whiteSpace=wrap;collapsible=0;dropTarget=0;pointerEvents=0;fillColor=none;top=0;left=0;bottom=0;right=0;points=[[0,0.5],[1,0.5]];portConstraint=eastwest;" parent="4uGV_whrXTmV8ysR94EK-174" vertex="1">
          <mxGeometry y="130" width="605" height="40" as="geometry" />
        </mxCell>
        <mxCell id="4uGV_whrXTmV8ysR94EK-191" value="Balcão" style="shape=partialRectangle;html=1;whiteSpace=wrap;connectable=0;overflow=hidden;fillColor=#f5f5f5;top=0;left=0;bottom=0;right=0;strokeColor=#666666;fontColor=#333333;" parent="4uGV_whrXTmV8ysR94EK-190" vertex="1">
          <mxGeometry width="152" height="40" as="geometry" />
        </mxCell>
        <mxCell id="4uGV_whrXTmV8ysR94EK-192" value="número, nome" style="shape=partialRectangle;html=1;whiteSpace=wrap;connectable=0;overflow=hidden;fillColor=none;top=0;left=0;bottom=0;right=0;" parent="4uGV_whrXTmV8ysR94EK-190" vertex="1">
          <mxGeometry x="152" width="151" height="40" as="geometry" />
        </mxCell>
        <mxCell id="4uGV_whrXTmV8ysR94EK-193" value="número" style="shape=partialRectangle;html=1;whiteSpace=wrap;connectable=0;overflow=hidden;fillColor=none;top=0;left=0;bottom=0;right=0;" parent="4uGV_whrXTmV8ysR94EK-190" vertex="1">
          <mxGeometry x="303" width="150" height="40" as="geometry" />
        </mxCell>
        <mxCell id="4uGV_whrXTmV8ysR94EK-194" value="-" style="shape=partialRectangle;html=1;whiteSpace=wrap;connectable=0;overflow=hidden;fillColor=none;top=0;left=0;bottom=0;right=0;" parent="4uGV_whrXTmV8ysR94EK-190" vertex="1">
          <mxGeometry x="453" width="152" height="40" as="geometry" />
        </mxCell>
        <mxCell id="4uGV_whrXTmV8ysR94EK-195" value="" style="shape=partialRectangle;html=1;whiteSpace=wrap;collapsible=0;dropTarget=0;pointerEvents=0;fillColor=none;top=0;left=0;bottom=0;right=0;points=[[0,0.5],[1,0.5]];portConstraint=eastwest;" parent="4uGV_whrXTmV8ysR94EK-174" vertex="1">
          <mxGeometry y="170" width="605" height="40" as="geometry" />
        </mxCell>
        <mxCell id="4uGV_whrXTmV8ysR94EK-196" value="Veículo" style="shape=partialRectangle;html=1;whiteSpace=wrap;connectable=0;overflow=hidden;fillColor=#f5f5f5;top=0;left=0;bottom=0;right=0;strokeColor=#666666;fontColor=#333333;" parent="4uGV_whrXTmV8ysR94EK-195" vertex="1">
          <mxGeometry width="152" height="40" as="geometry" />
        </mxCell>
        <mxCell id="4uGV_whrXTmV8ysR94EK-197" value="matricula" style="shape=partialRectangle;html=1;whiteSpace=wrap;connectable=0;overflow=hidden;fillColor=none;top=0;left=0;bottom=0;right=0;" parent="4uGV_whrXTmV8ysR94EK-195" vertex="1">
          <mxGeometry x="152" width="151" height="40" as="geometry" />
        </mxCell>
        <mxCell id="4uGV_whrXTmV8ysR94EK-198" value="matrícula" style="shape=partialRectangle;html=1;whiteSpace=wrap;connectable=0;overflow=hidden;fillColor=none;top=0;left=0;bottom=0;right=0;" parent="4uGV_whrXTmV8ysR94EK-195" vertex="1">
          <mxGeometry x="303" width="150" height="40" as="geometry" />
        </mxCell>
        <mxCell id="4uGV_whrXTmV8ysR94EK-199" value="Código_Veiculo" style="shape=partialRectangle;html=1;whiteSpace=wrap;connectable=0;overflow=hidden;fillColor=none;top=0;left=0;bottom=0;right=0;" parent="4uGV_whrXTmV8ysR94EK-195" vertex="1">
          <mxGeometry x="453" width="152" height="40" as="geometry" />
        </mxCell>
        <mxCell id="4uGV_whrXTmV8ysR94EK-200" value="" style="shape=partialRectangle;html=1;whiteSpace=wrap;collapsible=0;dropTarget=0;pointerEvents=0;fillColor=none;top=0;left=0;bottom=0;right=0;points=[[0,0.5],[1,0.5]];portConstraint=eastwest;" parent="4uGV_whrXTmV8ysR94EK-174" vertex="1">
          <mxGeometry y="210" width="605" height="40" as="geometry" />
        </mxCell>
        <mxCell id="4uGV_whrXTmV8ysR94EK-201" value="Tipo_Veículo" style="shape=partialRectangle;html=1;whiteSpace=wrap;connectable=0;overflow=hidden;fillColor=#f5f5f5;top=0;left=0;bottom=0;right=0;strokeColor=#666666;fontColor=#333333;" parent="4uGV_whrXTmV8ysR94EK-200" vertex="1">
          <mxGeometry width="152" height="40" as="geometry" />
        </mxCell>
        <mxCell id="4uGV_whrXTmV8ysR94EK-202" value="código" style="shape=partialRectangle;html=1;whiteSpace=wrap;connectable=0;overflow=hidden;fillColor=none;top=0;left=0;bottom=0;right=0;" parent="4uGV_whrXTmV8ysR94EK-200" vertex="1">
          <mxGeometry x="152" width="151" height="40" as="geometry" />
        </mxCell>
        <mxCell id="4uGV_whrXTmV8ysR94EK-203" value="código" style="shape=partialRectangle;html=1;whiteSpace=wrap;connectable=0;overflow=hidden;fillColor=none;top=0;left=0;bottom=0;right=0;" parent="4uGV_whrXTmV8ysR94EK-200" vertex="1">
          <mxGeometry x="303" width="150" height="40" as="geometry" />
        </mxCell>
        <mxCell id="4uGV_whrXTmV8ysR94EK-204" value="-" style="shape=partialRectangle;html=1;whiteSpace=wrap;connectable=0;overflow=hidden;fillColor=none;top=0;left=0;bottom=0;right=0;" parent="4uGV_whrXTmV8ysR94EK-200" vertex="1">
          <mxGeometry x="453" width="152" height="40" as="geometry" />
        </mxCell>
        <mxCell id="4uGV_whrXTmV8ysR94EK-205" value="" style="shape=partialRectangle;html=1;whiteSpace=wrap;collapsible=0;dropTarget=0;pointerEvents=0;fillColor=none;top=0;left=0;bottom=0;right=0;points=[[0,0.5],[1,0.5]];portConstraint=eastwest;" parent="4uGV_whrXTmV8ysR94EK-174" vertex="1">
          <mxGeometry y="250" width="605" height="40" as="geometry" />
        </mxCell>
        <mxCell id="4uGV_whrXTmV8ysR94EK-206" value="Similaridade" style="shape=partialRectangle;html=1;whiteSpace=wrap;connectable=0;overflow=hidden;fillColor=#f5f5f5;top=0;left=0;bottom=0;right=0;strokeColor=#666666;fontColor=#333333;" parent="4uGV_whrXTmV8ysR94EK-205" vertex="1">
          <mxGeometry width="152" height="40" as="geometry" />
        </mxCell>
        <mxCell id="4uGV_whrXTmV8ysR94EK-207" value="código_a, código_b" style="shape=partialRectangle;html=1;whiteSpace=wrap;connectable=0;overflow=hidden;fillColor=none;top=0;left=0;bottom=0;right=0;" parent="4uGV_whrXTmV8ysR94EK-205" vertex="1">
          <mxGeometry x="152" width="151" height="40" as="geometry" />
        </mxCell>
        <mxCell id="4uGV_whrXTmV8ysR94EK-208" value="&lt;span style=&quot;color: rgb(0 , 0 , 0) ; font-family: &amp;#34;helvetica&amp;#34; ; font-size: 12px ; font-style: normal ; font-weight: 400 ; letter-spacing: normal ; text-align: center ; text-indent: 0px ; text-transform: none ; word-spacing: 0px ; background-color: rgb(248 , 249 , 250) ; display: inline ; float: none&quot;&gt;código_a, código_b&lt;/span&gt;" style="shape=partialRectangle;html=1;whiteSpace=wrap;connectable=0;overflow=hidden;fillColor=none;top=0;left=0;bottom=0;right=0;" parent="4uGV_whrXTmV8ysR94EK-205" vertex="1">
          <mxGeometry x="303" width="150" height="40" as="geometry" />
        </mxCell>
        <mxCell id="4uGV_whrXTmV8ysR94EK-209" value="&lt;span&gt;código_a, código_b&lt;/span&gt;" style="shape=partialRectangle;html=1;whiteSpace=wrap;connectable=0;overflow=hidden;fillColor=none;top=0;left=0;bottom=0;right=0;" parent="4uGV_whrXTmV8ysR94EK-205" vertex="1">
          <mxGeometry x="453" width="152" height="40" as="geometry" />
        </mxCell>
        <mxCell id="4uGV_whrXTmV8ysR94EK-210" value="" style="shape=partialRectangle;html=1;whiteSpace=wrap;collapsible=0;dropTarget=0;pointerEvents=0;fillColor=none;top=0;left=0;bottom=0;right=0;points=[[0,0.5],[1,0.5]];portConstraint=eastwest;" parent="4uGV_whrXTmV8ysR94EK-174" vertex="1">
          <mxGeometry y="290" width="605" height="40" as="geometry" />
        </mxCell>
        <mxCell id="4uGV_whrXTmV8ysR94EK-211" value="Ligeiro" style="shape=partialRectangle;html=1;whiteSpace=wrap;connectable=0;overflow=hidden;fillColor=#f5f5f5;top=0;left=0;bottom=0;right=0;strokeColor=#666666;fontColor=#333333;" parent="4uGV_whrXTmV8ysR94EK-210" vertex="1">
          <mxGeometry width="152" height="40" as="geometry" />
        </mxCell>
        <mxCell id="4uGV_whrXTmV8ysR94EK-212" value="código_tipo_Veiculo" style="shape=partialRectangle;html=1;whiteSpace=wrap;connectable=0;overflow=hidden;fillColor=none;top=0;left=0;bottom=0;right=0;" parent="4uGV_whrXTmV8ysR94EK-210" vertex="1">
          <mxGeometry x="152" width="151" height="40" as="geometry" />
        </mxCell>
        <mxCell id="4uGV_whrXTmV8ysR94EK-213" value="código_tipo_Veiculo" style="shape=partialRectangle;html=1;whiteSpace=wrap;connectable=0;overflow=hidden;fillColor=none;top=0;left=0;bottom=0;right=0;" parent="4uGV_whrXTmV8ysR94EK-210" vertex="1">
          <mxGeometry x="303" width="150" height="40" as="geometry" />
        </mxCell>
        <mxCell id="4uGV_whrXTmV8ysR94EK-214" value="código_tipo_Veiculo" style="shape=partialRectangle;html=1;whiteSpace=wrap;connectable=0;overflow=hidden;fillColor=none;top=0;left=0;bottom=0;right=0;" parent="4uGV_whrXTmV8ysR94EK-210" vertex="1">
          <mxGeometry x="453" width="152" height="40" as="geometry" />
        </mxCell>
        <mxCell id="4uGV_whrXTmV8ysR94EK-215" value="" style="shape=partialRectangle;html=1;whiteSpace=wrap;collapsible=0;dropTarget=0;pointerEvents=0;fillColor=none;top=0;left=0;bottom=0;right=0;points=[[0,0.5],[1,0.5]];portConstraint=eastwest;" parent="4uGV_whrXTmV8ysR94EK-174" vertex="1">
          <mxGeometry y="330" width="605" height="40" as="geometry" />
        </mxCell>
        <mxCell id="4uGV_whrXTmV8ysR94EK-216" value="Pesado" style="shape=partialRectangle;html=1;whiteSpace=wrap;connectable=0;overflow=hidden;fillColor=#f5f5f5;top=0;left=0;bottom=0;right=0;strokeColor=#666666;fontColor=#333333;" parent="4uGV_whrXTmV8ysR94EK-215" vertex="1">
          <mxGeometry width="152" height="40" as="geometry" />
        </mxCell>
        <mxCell id="4uGV_whrXTmV8ysR94EK-217" value="código_tipo_Veiculo" style="shape=partialRectangle;html=1;whiteSpace=wrap;connectable=0;overflow=hidden;fillColor=none;top=0;left=0;bottom=0;right=0;" parent="4uGV_whrXTmV8ysR94EK-215" vertex="1">
          <mxGeometry x="152" width="151" height="40" as="geometry" />
        </mxCell>
        <mxCell id="4uGV_whrXTmV8ysR94EK-218" value="código_tipo_Veiculo" style="shape=partialRectangle;html=1;whiteSpace=wrap;connectable=0;overflow=hidden;fillColor=none;top=0;left=0;bottom=0;right=0;" parent="4uGV_whrXTmV8ysR94EK-215" vertex="1">
          <mxGeometry x="303" width="150" height="40" as="geometry" />
        </mxCell>
        <mxCell id="4uGV_whrXTmV8ysR94EK-219" value="código_tipo_Veiculo" style="shape=partialRectangle;html=1;whiteSpace=wrap;connectable=0;overflow=hidden;fillColor=none;top=0;left=0;bottom=0;right=0;" parent="4uGV_whrXTmV8ysR94EK-215" vertex="1">
          <mxGeometry x="453" width="152" height="40" as="geometry" />
        </mxCell>
        <mxCell id="jvzSfqrTdIB5xdqVY5XZ-1" value="&lt;span style=&quot;font-size: 32px&quot;&gt;Exercício 3.1&lt;/span&gt;" style="text;html=1;strokeColor=none;fillColor=none;align=center;verticalAlign=middle;whiteSpace=wrap;rounded=0;" parent="1" vertex="1">
          <mxGeometry x="-420" y="210" width="300" height="50" as="geometry" />
        </mxCell>
        <mxCell id="fnm-uwGM8BjsfgP0mNWM-1" value="&lt;font style=&quot;font-size: 20px&quot;&gt;P4G7&lt;br&gt;- Álvaro Freixo 93116&lt;br&gt;- João Machado 89132&lt;br&gt;&lt;/font&gt;" style="text;html=1;strokeColor=none;fillColor=none;align=center;verticalAlign=middle;whiteSpace=wrap;rounded=0;" parent="1" vertex="1">
          <mxGeometry x="-395" y="260" width="250" height="110" as="geometry" />
        </mxCell>
        <mxCell id="fnm-uwGM8BjsfgP0mNWM-6" value="Chaves" style="text;strokeColor=none;fillColor=none;html=1;fontSize=24;fontStyle=1;verticalAlign=middle;align=center;" parent="1" vertex="1">
          <mxGeometry x="-175" y="1830" width="210" height="40" as="geometry" />
        </mxCell>
      </root>
    </mxGraphModel>
  </diagram>
</mxfile>
